<svg width="526" height="500" viewBox="0 0 526 500" fill="none" xmlns="http://www.w3.org/2000/svg">
<circle cx="250" cy="250" r="249.5" fill="white" stroke="black"/>
<g filter="url(#filter0_d_24_4)">
<mask id="path-2-outside-1_24_4" maskUnits="userSpaceOnUse" x="129" y="140" width="268" height="223" fill="black">
<rect fill="white" x="129" y="140" width="268" height="223"/>
<path d="M335.3 141L297.5 357H243.2L205.4 238.8L185 357H130.7L168.8 141H224.6L261.8 251.4L281.3 141H335.3ZM335.68 339.6C335.68 326.8 338.48 317.5 344.08 311.7C349.68 305.7 358.58 302.7 370.78 302.7C387.58 302.7 395.98 310.1 395.98 324.9C395.98 337.5 393.08 346.7 387.28 352.5C381.68 358.3 372.78 361.2 360.58 361.2C343.98 361.2 335.68 354 335.68 339.6Z"/>
</mask>
<path d="M335.3 141L297.5 357H243.2L205.4 238.8L185 357H130.7L168.8 141H224.6L261.8 251.4L281.3 141H335.3ZM335.68 339.6C335.68 326.8 338.48 317.5 344.08 311.7C349.68 305.7 358.58 302.7 370.78 302.7C387.58 302.7 395.98 310.1 395.98 324.9C395.98 337.5 393.08 346.7 387.28 352.5C381.68 358.3 372.78 361.2 360.58 361.2C343.98 361.2 335.68 354 335.68 339.6Z" fill="black"/>
<path d="M335.3 141L336.285 141.172L336.49 140H335.3V141ZM297.5 357V358H298.34L298.485 357.172L297.5 357ZM243.2 357L242.248 357.305L242.47 358H243.2V357ZM205.4 238.8L206.352 238.495L204.415 238.63L205.4 238.8ZM185 357V358H185.842L185.985 357.17L185 357ZM130.7 357L129.715 356.826L129.508 358H130.7V357ZM168.8 141V140H167.961L167.815 140.826L168.8 141ZM224.6 141L225.548 140.681L225.318 140H224.6V141ZM261.8 251.4L260.852 251.719L262.785 251.574L261.8 251.4ZM281.3 141V140H280.461L280.315 140.826L281.3 141ZM334.315 140.828L296.515 356.828L298.485 357.172L336.285 141.172L334.315 140.828ZM297.5 356H243.2V358H297.5V356ZM244.152 356.695L206.352 238.495L204.448 239.105L242.248 357.305L244.152 356.695ZM204.415 238.63L184.015 356.83L185.985 357.17L206.385 238.97L204.415 238.63ZM185 356H130.7V358H185V356ZM131.685 357.174L169.785 141.174L167.815 140.826L129.715 356.826L131.685 357.174ZM168.8 142H224.6V140H168.8V142ZM223.652 141.319L260.852 251.719L262.748 251.081L225.548 140.681L223.652 141.319ZM262.785 251.574L282.285 141.174L280.315 140.826L260.815 251.226L262.785 251.574ZM281.3 142H335.3V140H281.3V142ZM344.08 311.7L344.799 312.395L344.805 312.389L344.811 312.382L344.08 311.7ZM387.28 352.5L386.573 351.793L386.566 351.799L386.56 351.805L387.28 352.5ZM336.68 339.6C336.68 326.913 339.46 317.924 344.799 312.395L343.36 311.005C337.499 317.076 334.68 326.687 334.68 339.6H336.68ZM344.811 312.382C350.146 306.666 358.722 303.7 370.78 303.7V301.7C358.438 301.7 349.214 304.734 343.349 311.018L344.811 312.382ZM370.78 303.7C379.055 303.7 385.074 305.525 389.019 309C392.939 312.454 394.98 317.689 394.98 324.9H396.98C396.98 317.311 394.82 311.446 390.341 307.5C385.886 303.575 379.305 301.7 370.78 301.7V303.7ZM394.98 324.9C394.98 337.374 392.105 346.26 386.573 351.793L387.987 353.207C394.054 347.14 396.98 337.626 396.98 324.9H394.98ZM386.56 351.805C381.227 357.329 372.646 360.2 360.58 360.2V362.2C372.913 362.2 382.133 359.271 387.999 353.195L386.56 351.805ZM360.58 360.2C352.402 360.2 346.455 358.423 342.56 355.045C338.692 351.689 336.68 346.606 336.68 339.6H334.68C334.68 346.994 336.817 352.711 341.249 356.555C345.654 360.377 352.158 362.2 360.58 362.2V360.2Z" fill="black" mask="url(#path-2-outside-1_24_4)"/>
</g>
<defs>
<filter id="filter0_d_24_4" x="80.7" y="91" width="445.28" height="400.2" filterUnits="userSpaceOnUse" color-interpolation-filters="sRGB">
<feFlood flood-opacity="0" result="BackgroundImageFix"/>
<feColorMatrix in="SourceAlpha" type="matrix" values="0 0 0 0 0 0 0 0 0 0 0 0 0 0 0 0 0 0 127 0" result="hardAlpha"/>
<feOffset dx="40" dy="40"/>
<feGaussianBlur stdDeviation="45"/>
<feComposite in2="hardAlpha" operator="out"/>
<feColorMatrix type="matrix" values="0 0 0 0 0 0 0 0 0 0 0 0 0 0 0 0 0 0 0.32 0"/>
<feBlend mode="normal" in2="BackgroundImageFix" result="effect1_dropShadow_24_4"/>
<feBlend mode="normal" in="SourceGraphic" in2="effect1_dropShadow_24_4" result="shape"/>
</filter>
</defs>
</svg>
